<?xml version="1.0" encoding="UTF-8" standalone="no"?>
<!DOCTYPE svg PUBLIC "-//W3C//DTD SVG 1.1//EN" "http://www.w3.org/Graphics/SVG/1.1/DTD/svg11.dtd">
<svg width="100%" height="100%" viewBox="0 0 1050 1050" version="1.1" xmlns="http://www.w3.org/2000/svg" xmlns:xlink="http://www.w3.org/1999/xlink" xml:space="preserve" xmlns:serif="http://www.serif.com/" style="fill-rule:evenodd;clip-rule:evenodd;stroke-linejoin:round;stroke-miterlimit:2;">
    <clipPath id="_clip1">
        <rect id="Artboard1" x="0" y="0" width="1050" height="1050"/>
    </clipPath>
    <g clip-path="url(#_clip1)">
        <g transform="matrix(1.512438,0,0,1.487619,-204.506638,-249.756216)">
            <path d="M135.249,521.559C135.249,469.225 177.674,426.8 230.008,426.8C360.705,426.77 603.974,426.77 734.671,426.77C787.021,426.77 829.46,469.209 829.46,521.559C829.43,521.559 829.43,521.56 829.43,521.56C829.43,573.894 787.005,616.319 734.671,616.319C603.974,616.349 360.705,616.349 230.008,616.349C177.658,616.349 135.219,573.91 135.219,521.56C135.249,521.56 135.249,521.559 135.249,521.559Z"/>
        </g>
        <g transform="matrix(1.947906,0,0,1.329463,-497.645568,-171.842471)">
            <path d="M722.705,129.257C762.366,129.257 794.517,176.365 794.517,234.475L794.517,234.476C794.517,292.587 762.366,339.695 722.705,339.695L327.284,339.695C287.623,339.695 255.471,292.587 255.471,234.476L255.471,234.475C255.471,176.365 287.623,129.257 327.284,129.257L722.705,129.257Z"/>
        </g>
        <g transform="matrix(1.947906,0,0,1.329463,-497.645568,598.388574)">
            <path d="M722.705,129.257C762.366,129.257 794.517,176.365 794.517,234.475L794.517,234.476C794.517,292.587 762.366,339.695 722.705,339.695L327.284,339.695C287.623,339.695 255.471,292.587 255.471,234.476L255.471,234.475C255.471,176.365 287.623,129.257 327.284,129.257L722.705,129.257Z"/>
        </g>
    </g>
</svg>
