<?xml version="1.0" encoding="UTF-8" standalone="no"?><!DOCTYPE svg PUBLIC "-//W3C//DTD SVG 1.1//EN" "http://www.w3.org/Graphics/SVG/1.1/DTD/svg11.dtd"><svg width="100%" height="100%" viewBox="0 0 252 252" version="1.1" xmlns="http://www.w3.org/2000/svg" xmlns:xlink="http://www.w3.org/1999/xlink" xml:space="preserve" xmlns:serif="http://www.serif.com/" style="fill-rule:evenodd;clip-rule:evenodd;stroke-linejoin:round;stroke-miterlimit:2;"><rect id="Artboard1" x="0" y="0" width="252" height="252" style="fill:none;"/><clipPath id="_clip1"><rect x="0" y="0" width="252" height="252"/></clipPath><g clip-path="url(#_clip1)"><path d="M212.985,66.603l-96.087,96.087c-3.749,3.749 -9.827,3.749 -13.576,-0l-14.012,-14.012c-3.749,-3.749 -3.749,-9.827 -0,-13.576l96.087,-96.087l-30.289,0c-5.302,-0 -9.6,-4.298 -9.6,-9.6l0,-19.815c-0,-2.546 1.011,-4.988 2.812,-6.788c1.8,-1.8 4.242,-2.812 6.788,-2.812l80.092,0c9.278,0 16.8,7.522 16.8,16.8l0,80.092c0,2.546 -1.011,4.988 -2.812,6.788c-1.8,1.8 -4.242,2.812 -6.788,2.812l-19.815,-0c-5.302,0 -9.6,-4.298 -9.6,-9.6l-0,-30.289Zm29.415,78.904c5.302,-0 9.6,4.298 9.6,9.6l0,48.892c-0,26.51 -21.49,48 -48,48l-136.8,0c-17.823,0 -34.915,-7.08 -47.518,-19.682c-12.602,-12.602 -19.682,-29.695 -19.682,-47.518l-0,-136.8c0,-26.51 21.49,-48 48,-48l48.892,0c5.302,0 9.6,4.298 9.6,9.6l-0,19.815c0,5.302 -4.298,9.6 -9.6,9.6l-48.892,0c-4.962,0 -8.985,4.023 -8.985,8.985l0,136.8c-0,7.475 2.969,14.644 8.255,19.93c5.286,5.286 12.455,8.255 19.93,8.255l136.8,-0c4.962,-0 8.985,-4.023 8.985,-8.985l0,-48.892c0,-5.302 4.298,-9.6 9.6,-9.6l19.815,0Z" style="fill:#3260ca;"/></g></svg>